<?xml version="1.0" encoding="UTF-8" standalone="no"?> <svg width="64" height="64" viewBox="0 0 64 64" fill="none" xmlns="http://www.w3.org/2000/svg">
<path d="M32.2902 59.7101C46.136 59.7101 57.3602 48.4858 57.3602 34.6401C57.3602 20.7943 46.136 9.57007 32.2902 9.57007C18.4444 9.57007 7.22021 20.7943 7.22021 34.6401C7.22021 48.4858 18.4444 59.7101 32.2902 59.7101Z" fill="#78B9EB"/>
<path d="M56.6101 17.56C56.7259 17.6749 56.8632 17.7659 57.0142 17.8277C57.1653 17.8895 57.327 17.9208 57.4901 17.92C57.8223 17.92 58.1414 17.7909 58.3801 17.56C58.6104 17.323 58.7393 17.0055 58.7393 16.675C58.7393 16.3445 58.6104 16.027 58.3801 15.79L51.1701 8.58C51.0572 8.45292 50.9194 8.35022 50.7654 8.27819C50.6114 8.20616 50.4443 8.16631 50.2744 8.16108C50.1044 8.15585 49.9352 8.18534 49.777 8.24776C49.6188 8.31018 49.4751 8.40422 49.3545 8.52411C49.2339 8.644 49.1391 8.78722 49.0758 8.94503C49.0125 9.10283 48.982 9.27189 48.9863 9.44187C48.9906 9.61185 49.0295 9.77917 49.1006 9.9336C49.1718 10.088 49.2737 10.2263 49.4001 10.34L52.1201 13.07L49.6801 15.5C45.1678 11.3794 39.3544 8.96981 33.2501 8.69V5.25H37.1001C37.4316 5.25 37.7496 5.1183 37.984 4.88388C38.2184 4.64946 38.3501 4.33152 38.3501 4C38.3501 3.66848 38.2184 3.35054 37.984 3.11612C37.7496 2.8817 37.4316 2.75 37.1001 2.75H26.9001C26.5686 2.75 26.2507 2.8817 26.0162 3.11612C25.7818 3.35054 25.6501 3.66848 25.6501 4C25.6501 4.33152 25.7818 4.64946 26.0162 4.88388C26.2507 5.1183 26.5686 5.25 26.9001 5.25H30.7501V8.69C24.6458 8.96981 18.8325 11.3794 14.3201 15.5L11.8801 13.07L14.6001 10.34C14.8124 10.1013 14.9251 9.79033 14.9153 9.47105C14.9055 9.15177 14.7738 8.84836 14.5473 8.62313C14.3208 8.39789 14.0166 8.26793 13.6973 8.2599C13.3779 8.25188 13.0677 8.36642 12.8301 8.58L5.62012 15.79C5.38982 16.027 5.26099 16.3445 5.26099 16.675C5.26099 17.0055 5.38982 17.323 5.62012 17.56C5.85884 17.7909 6.17798 17.92 6.51012 17.92C6.67327 17.9208 6.83499 17.8895 6.986 17.8277C7.137 17.7659 7.27434 17.6749 7.39012 17.56L10.1101 14.83L12.5501 17.27C9.11967 21.039 6.85819 25.7236 6.04069 30.754C5.22318 35.7845 5.88486 40.9441 7.94526 45.6054C10.0057 50.2668 13.376 54.2291 17.6465 57.0106C21.917 59.792 26.9037 61.2728 32.0001 61.2728C37.0966 61.2728 42.0832 59.792 46.3537 57.0106C50.6242 54.2291 53.9946 50.2668 56.055 45.6054C58.1154 40.9441 58.7771 35.7845 57.9596 30.754C57.142 25.7236 54.8806 21.039 51.4501 17.27L53.8901 14.83L56.6101 17.56ZM32.0001 58.75C27.2908 58.75 22.6873 57.3529 18.7724 54.7355C14.8574 52.1181 11.8069 48.3981 10.007 44.0463C8.20716 39.6945 7.73877 34.9065 8.66116 30.2884C9.58354 25.6703 11.8552 21.4297 15.1887 18.1032C18.5222 14.7767 22.7677 12.5139 27.3877 11.6012C32.0077 10.6886 36.7947 11.167 41.1427 12.9761C45.4907 14.7851 49.2043 17.8434 51.8134 21.7638C54.4226 25.6843 55.81 30.2907 55.8001 35C55.779 41.301 53.2631 47.3372 48.8029 51.7881C44.3427 56.2389 38.3012 58.7421 32.0001 58.75Z" fill="#006DF0"/>
<path d="M32.0001 13.9001C31.6686 13.9001 31.3507 14.0318 31.1162 14.2662C30.8818 14.5006 30.7501 14.8185 30.7501 15.1501V34.4101L22.0001 42.5801C21.8719 42.6895 21.7671 42.8237 21.6921 42.9747C21.6171 43.1257 21.5734 43.2903 21.5636 43.4586C21.5539 43.6269 21.5783 43.7954 21.6353 43.9541C21.6924 44.1127 21.781 44.2582 21.8957 44.3817C22.0105 44.5052 22.149 44.6042 22.303 44.6728C22.457 44.7414 22.6233 44.7781 22.7919 44.7808C22.9604 44.7834 23.1278 44.7519 23.2839 44.6882C23.44 44.6245 23.5815 44.5299 23.7001 44.4101L32.8701 35.8701C32.9972 35.753 33.0984 35.6108 33.1673 35.4523C33.2362 35.2939 33.2712 35.1228 33.2701 34.9501V15.1501C33.2701 14.9842 33.2372 14.82 33.1731 14.667C33.109 14.5141 33.0152 14.3754 32.897 14.259C32.7788 14.1427 32.6386 14.051 32.4846 13.9894C32.3306 13.9278 32.1659 13.8974 32.0001 13.9001V13.9001Z" fill="#006DF0"/>
</svg>
