<?xml version="1.0" encoding="UTF-8" standalone="no"?> <svg xmlns="http://www.w3.org/2000/svg" xmlns:xlink="http://www.w3.org/1999/xlink" viewBox="0 0 64 64"><defs><style>.cls-1{fill:url(#linear-gradient);}.cls-2{fill:url(#linear-gradient-2);}.cls-3{fill:url(#linear-gradient-3);}.cls-4{fill:url(#linear-gradient-4);}</style><linearGradient id="linear-gradient" x1="23.21" y1="42.89" x2="40.79" y2="42.89" gradientUnits="userSpaceOnUse"><stop offset="0" stop-color="#17a6d7"/><stop offset="1" stop-color="#9d31fe"/></linearGradient><linearGradient id="linear-gradient-2" x1="28.18" y1="39.79" x2="35.82" y2="39.79" xlink:href="#linear-gradient"/><linearGradient id="linear-gradient-3" x1="18.74" y1="55.28" x2="45.26" y2="55.28" xlink:href="#linear-gradient"/><linearGradient id="linear-gradient-4" x1="3.12" y1="25.35" x2="60.87" y2="25.35" xlink:href="#linear-gradient"/></defs><g id="Layer_31" data-name="Layer 31"><path class="cls-1" d="M32,54.79a1,1,0,0,0,.78-.38c.82-1,8-10.1,8-14.62a8.79,8.79,0,1,0-17.58,0c0,4.52,7.19,13.6,8,14.62A1,1,0,0,0,32,54.79ZM32,33a6.8,6.8,0,0,1,6.79,6.79c0,2.89-4.36,9.19-6.79,12.38-2.43-3.19-6.79-9.49-6.79-12.38A6.8,6.8,0,0,1,32,33Z"/><path class="cls-2" d="M35.82,39.79a3.82,3.82,0,0,0-7.64,0C28.31,44.83,35.69,44.82,35.82,39.79Zm-5.64,0a1.82,1.82,0,0,1,3.64,0A1.82,1.82,0,0,1,30.18,39.79Z"/><path class="cls-3" d="M39.85,49.61a1,1,0,0,0-.64,1.9c2.5.83,4,2.07,4,3.21,0,2-4.47,4.18-10.91,4.27h-.74c-8.8-.17-15.47-4.38-6.82-7.48a1,1,0,0,0-.64-1.9c-3.44,1.15-5.41,3-5.41,5.11,0,3.48,5.52,6.17,12.8,6.27h.88c7.32-.1,12.84-2.79,12.84-6.27C45.26,52.63,43.29,50.76,39.85,49.61Z"/><path class="cls-4" d="M47.57,16.34h0c-3-17.7-28.16-17.67-31.14,0-18.14,3.17-17.58,28.92.7,31.26a1,1,0,0,0,.22-2A13.75,13.75,0,0,1,5.05,32c-.16-10.11,11.06-17,20-12.29a1,1,0,0,0,1.35-.43c1.08-2.18-6.51-3.25-7.92-3.05,3-14.83,24.06-14.82,27,0-1.43-.2-9,.88-7.93,3.05a1,1,0,0,0,1.35.43C47.85,14.92,59.08,21.87,59,32a13.75,13.75,0,0,1-12.3,13.69,1,1,0,0,0,.22,2C65.19,45.25,65.64,19.59,47.57,16.34Z"/></g></svg>