<?xml version="1.0" encoding="iso-8859-1"?>
<!-- Generator: Adobe Illustrator 19.0.0, SVG Export Plug-In . SVG Version: 6.00 Build 0)  -->
<svg version="1.1" xmlns="http://www.w3.org/2000/svg" xmlns:xlink="http://www.w3.org/1999/xlink" x="0px" y="0px"
	 viewBox="0 0 520 520" style="enable-background:new 0 0 520 520;" xml:space="preserve">
<g id="_x33_55_x2C__Country_x2C__Flag_x2C__Notification_x2C__Place">
	<g>
		<circle style="fill:#9BC9FF;" cx="392.5" cy="370" r="30"/>
		<path style="fill:#9BC9FF;" d="M67.5,165c11.05,0,20,8.95,20,20s-8.95,20-20,20s-20-8.95-20-20S56.45,165,67.5,165z"/>
		<path style="fill:#9BC9FF;" d="M168.101,54.4c2.72,2.71,4.399,6.46,4.399,10.6c0,8.28-6.72,15-15,15h-10h-35h-10
			c-4.14,0-7.89-1.68-10.6-4.4c-2.72-2.71-4.4-6.46-4.4-10.6c0-8.28,6.721-15,15-15h55C161.641,50,165.391,51.68,168.101,54.4z"/>
		<path style="fill:#FFFFFF;" d="M147.5,80v0.01c0,54.16,0,108.32,0,162.49c0,10.07,0,20.15,0,30.23V440h-35V80H147.5z"/>
		<path style="fill:#9BC9FF;" d="M432.19,279.99c0,10.08,0,20.149,0,30.229c-94.9-112.49-189.79,75-284.69-37.489
			c0-10.08,0-20.161,0-30.23c0-54.17,0-108.33,0-162.49c94.9,112.49,189.79-75,284.69,37.49
			C432.19,171.66,432.19,225.83,432.19,279.99z"/>
		<path style="fill:#1E81CE;" d="M472.06,320.29c3.98,1.14,6.29,5.29,5.15,9.27c-1.13,3.98-5.29,6.29-9.27,5.15
			c-3.98-1.13-6.29-5.29-5.15-9.27C463.93,321.46,468.08,319.15,472.06,320.29z"/>
		<path style="fill:#1E81CE;" d="M437.06,50.29c3.98,1.13,6.29,5.29,5.15,9.27c-1.13,3.98-5.29,6.29-9.27,5.15
			c-3.98-1.14-6.29-5.29-5.15-9.27C428.93,51.46,433.08,49.15,437.06,50.29z"/>
		<circle style="fill:#1E81CE;" cx="427.5" cy="460" r="5"/>
		<path style="fill:#1E81CE;" d="M277.06,355.29c3.98,1.13,6.29,5.29,5.15,9.27c-1.14,3.98-5.29,6.29-9.27,5.15
			c-3.98-1.14-6.29-5.29-5.15-9.27C268.92,356.46,273.08,354.15,277.06,355.29z"/>
		<path style="fill:#1E81CE;" d="M227.061,65.29c3.979,1.13,6.29,5.29,5.15,9.27c-1.14,3.98-5.29,6.29-9.27,5.15
			c-3.98-1.14-6.29-5.29-5.15-9.27C218.92,66.46,223.08,64.15,227.061,65.29z"/>
		<circle style="fill:#1E81CE;" cx="127.5" cy="480" r="5"/>
		<path style="fill:#1E81CE;" d="M87.061,390.29c3.979,1.13,6.29,5.29,5.149,9.27c-1.14,3.98-5.29,6.29-9.27,5.15
			c-3.98-1.14-6.29-5.29-5.15-9.27C78.92,391.46,83.08,389.15,87.061,390.29z"/>
		<path style="fill:#1E81CE;" d="M57.061,265.29c3.979,1.14,6.29,5.29,5.149,9.27c-1.14,3.98-5.29,6.29-9.27,5.15
			c-3.98-1.13-6.29-5.29-5.15-9.27C48.92,266.46,53.08,264.15,57.061,265.29z"/>
		<path style="fill:#1E81CE;" d="M312.5,445h-165c-2.761,0-5-2.238-5-5s2.239-5,5-5h165c2.762,0,5,2.238,5,5S315.262,445,312.5,445z
			"/>
		<path style="fill:#1E81CE;" d="M112.5,445h-70c-2.761,0-5-2.238-5-5s2.239-5,5-5h70c2.762,0,5,2.238,5,5S115.262,445,112.5,445z"
			/>
		<path style="fill:#1E81CE;" d="M412.5,465h-145c-2.762,0-5-2.238-5-5s2.238-5,5-5h145c2.762,0,5,2.238,5,5S415.262,465,412.5,465z
			"/>
		<path style="fill:#1E81CE;" d="M332.5,485h-190c-2.761,0-5-2.238-5-5s2.239-5,5-5h190c2.762,0,5,2.238,5,5S335.262,485,332.5,485z
			"/>
		<path style="fill:#1E81CE;" d="M477.5,465h-35c-2.762,0-5-2.238-5-5s2.238-5,5-5h35c2.762,0,5,2.238,5,5S480.262,465,477.5,465z"
			/>
		<path style="fill:#1E81CE;" d="M147.5,85.005c-2.761,0-5-2.234-5-4.995V80c0-2.761,2.239-5,5-5c2.762,0,5,2.239,5,5
			S150.262,85.005,147.5,85.005z"/>
		<path style="fill:#1E81CE;" d="M147.5,445h-35c-2.761,0-5-2.238-5-5V80c0-2.761,2.239-5,5-5c2.762,0,5,2.239,5,5v355h25V272.73
			c0-2.762,2.239-5,5-5c2.762,0,5,2.238,5,5V440C152.5,442.762,150.262,445,147.5,445z"/>
		<path style="fill:#1E81CE;" d="M157.5,85h-55c-5.347,0-10.369-2.085-14.142-5.871C84.585,75.37,82.5,70.347,82.5,65
			c0-11.028,8.973-20,20-20h55c5.348,0,10.37,2.085,14.143,5.871c3.772,3.76,5.857,8.782,5.857,14.129
			C177.5,76.028,168.528,85,157.5,85z M102.5,55c-5.514,0-10,4.486-10,10c0,2.669,1.04,5.176,2.93,7.058
			C97.324,73.96,99.831,75,102.5,75h55c5.515,0,10-4.486,10-10c0-2.669-1.04-5.176-2.929-7.058C162.677,56.04,160.17,55,157.5,55
			H102.5z"/>
		<path style="fill:#1E81CE;" d="M218.686,315.226c-0.006,0-0.01,0-0.016,0c-28.172-0.005-52.702-12.851-74.991-39.271
			c-0.761-0.901-1.179-2.044-1.179-3.224V80.01c0-2.1,1.311-3.976,3.284-4.696c1.971-0.72,4.185-0.133,5.538,1.472
			c20.559,24.37,41.96,35.72,67.349,35.72c22.774-0.001,46.444-9.354,69.335-18.4c23.763-9.391,48.334-19.101,73.014-19.101
			c28.169,0,52.699,12.846,74.992,39.271c0.762,0.902,1.179,2.044,1.179,3.224v192.72c0,2.1-1.312,3.976-3.283,4.696
			c-1.976,0.721-4.185,0.133-5.538-1.472c-20.559-24.37-41.96-35.72-67.35-35.72c-22.772,0-46.44,9.353-69.329,18.4
			C267.932,305.516,243.361,315.226,218.686,315.226z M152.5,270.888c20.195,23.412,41.264,34.334,66.172,34.338
			c0.004,0,0.009,0,0.014,0c22.772,0,46.439-9.354,69.329-18.4c23.76-9.391,48.328-19.101,73.005-19.101
			c24.503,0,46.251,9.718,66.171,29.642V119.343c-20.199-23.417-41.267-34.338-66.171-34.338c-22.775,0-46.446,9.354-69.338,18.4
			c-23.762,9.39-48.332,19.1-73.01,19.101c-24.503,0.001-46.252-9.718-66.172-29.642V270.888z"/>
		<path style="fill:#1E81CE;" d="M247.495,144.771c-2.3,0.001-4.37-1.597-4.88-3.936c-0.589-2.698,1.122-5.362,3.82-5.95
			c15.489-3.377,31.45-9.685,46.885-15.785c29.302-11.581,59.605-23.555,90.16-17.443c2.708,0.541,4.464,3.176,3.923,5.883
			c-0.542,2.707-3.169,4.465-5.884,3.922c-27.666-5.536-55.285,5.38-84.523,16.937c-15.806,6.247-32.149,12.706-48.431,16.255
			C248.207,144.733,247.848,144.771,247.495,144.771z"/>
		<path style="fill:#1E81CE;" d="M432.193,284.99c-1.423,0-2.835-0.604-3.824-1.775c-22.523-26.696-46.495-37.927-75.425-35.345
			c-2.77,0.241-5.179-1.786-5.425-4.536c-0.245-2.751,1.785-5.179,4.536-5.424c32.461-2.9,59.145,9.449,83.956,38.855
			c1.781,2.111,1.514,5.266-0.597,7.046C434.477,284.603,433.331,284.99,432.193,284.99z"/>
		<path style="fill:#1E81CE;" d="M218.693,284.902c-24.938,0-50.159-9.718-75.015-39.178c-1.78-2.11-1.514-5.265,0.598-7.046
			c2.11-1.78,5.265-1.513,7.046,0.598c41.16,48.787,80.686,38.89,124.388,22.135c2.579-0.988,5.471,0.301,6.459,2.879
			c0.988,2.579-0.301,5.471-2.879,6.459C259.531,278.323,239.208,284.902,218.693,284.902z"/>
		<path style="fill:#1E81CE;" d="M392.5,405c-19.299,0-35-15.701-35-35s15.701-35,35-35s35,15.701,35,35S411.799,405,392.5,405z
			 M392.5,345c-13.785,0-25,11.215-25,25s11.215,25,25,25c13.785,0,25-11.215,25-25S406.285,345,392.5,345z"/>
		<path style="fill:#1E81CE;" d="M67.5,210c-13.785,0-25-11.215-25-25s11.215-25,25-25s25,11.215,25,25S81.285,210,67.5,210z
			 M67.5,170c-8.271,0-15,6.729-15,15s6.729,15,15,15c8.271,0,15-6.729,15-15S75.771,170,67.5,170z"/>
	</g>
</g>
<g id="Layer_1">
</g>
</svg>
