<?xml version="1.0" encoding="UTF-8" standalone="no"?> <svg xmlns="http://www.w3.org/2000/svg" xmlns:xlink="http://www.w3.org/1999/xlink" viewBox="0 0 64 64"><defs><style>.cls-1{fill:url(#linear-gradient);}</style><linearGradient id="linear-gradient" x1="3" y1="32" x2="61" y2="32" gradientUnits="userSpaceOnUse"><stop offset="0" stop-color="#17a6d7"/><stop offset="1" stop-color="#9d31fe"/></linearGradient></defs><g id="Layer_26" data-name="Layer 26"><path class="cls-1" d="M60.92,35.46,55.25,21.67a1,1,0,0,0-.92-.62H43.82a1,1,0,0,0-1,1V40.27H40.43V13.93a1,1,0,0,0-1-1H13a1,1,0,0,0-1,1v5.69H7.11a1,1,0,1,0,0,2H12v2.74H4a1,1,0,0,0,0,2h8v2.73H9.46a1,1,0,1,0,0,2H12v2.74H4a1,1,0,0,0,0,2h8v9.8a1,1,0,0,0,1,1h6.77a5.44,5.44,0,0,0,10.7,0H46.65a5.44,5.44,0,0,0,10.7,0H60a1,1,0,0,0,1-1V35.84A1,1,0,0,0,60.92,35.46Zm-2.41-.62h-7V23.05h2.2ZM42.82,44.63H30.47a5.53,5.53,0,0,0-1.07-2.36H42.82ZM26.21,33.83H14V31.09H28.41a1,1,0,0,0,0-2H14V26.36h3.82a1,1,0,0,0,0-2H14V21.62H26.21a1,1,0,0,0,0-2H14V14.93H38.43V40.27H14V35.83H26.21a1,1,0,0,0,0-2ZM14,42.27h6.84a5.41,5.41,0,0,0-1.07,2.36H14Zm11.12,6.8a3.44,3.44,0,0,1-.77-6.8h1.54a3.44,3.44,0,0,1-.77,6.8Zm26.88,0a3.45,3.45,0,1,1,3.45-3.45A3.46,3.46,0,0,1,52,49.07Zm5.35-4.44a5.44,5.44,0,0,0-10.7,0H44.82V23.05h4.64V35.84a1,1,0,0,0,1,1H59v7.79Z"/></g></svg>