<?xml version="1.0" encoding="UTF-8" standalone="no"?> <svg xmlns="http://www.w3.org/2000/svg" xmlns:xlink="http://www.w3.org/1999/xlink" viewBox="0 0 64 64"><defs><style>.cls-1{fill:url(#linear-gradient);}</style><linearGradient id="linear-gradient" x1="3" y1="32" x2="61" y2="32" gradientUnits="userSpaceOnUse"><stop offset="0" stop-color="#17a6d7"/><stop offset="1" stop-color="#9d31fe"/></linearGradient></defs><g id="Layer_27" data-name="Layer 27"><path class="cls-1" d="M60.92,43.87,55.25,30.08a1,1,0,0,0-.92-.62H43.82a1,1,0,0,0-1,1V48.68H40.43V22.25a1,1,0,0,0-1-1H35.17l1.4-4.16a3.14,3.14,0,0,0-3-4.07H26.88l.84-6.2a.91.91,0,0,0,0-.17,2.2,2.2,0,0,0-2.21-2.13h-2a2.22,2.22,0,0,0-2.06,1.4l-3.67,7.51H16.71a2.4,2.4,0,0,0-2.39-2.23H9.12a2.41,2.41,0,0,0-2.41,2.4v7.65H4a1,1,0,0,0-1,1V54a1,1,0,0,0,1,1H6.68a5.44,5.44,0,0,0,10.7,0h2.39a5.44,5.44,0,0,0,10.7,0H46.65a5.44,5.44,0,0,0,10.7,0H60a1,1,0,0,0,1-1V44.25A1,1,0,0,0,60.92,43.87Zm-2.41-.62h-7V31.46h2.2ZM42.82,53H30.47a5.43,5.43,0,0,0-1.08-2.36H42.82Zm-23,0H17.38a5.41,5.41,0,0,0-1.07-2.36h4.53A5.41,5.41,0,0,0,19.77,53Zm-1.38-37.6h0a1,1,0,0,0,.9-.56l4-8.12a1,1,0,0,0,0-.1.22.22,0,0,1,.2-.14h2a.21.21,0,0,1,.2.15l-1,7.21a1,1,0,0,0,.24.79,1,1,0,0,0,.75.35h7.84a1.14,1.14,0,0,1,.92.46,1.12,1.12,0,0,1,.18,1l-3,8.93a2.86,2.86,0,0,1-2.75,2H18.69l-2-1.6V15.43ZM8.71,13.6a.41.41,0,0,1,.41-.4h5.2a.4.4,0,0,1,.41.4V27.12a.4.4,0,0,1-.41.4H9.12a.41.41,0,0,1-.41-.4ZM5,23.25H6.71v3.87a2.41,2.41,0,0,0,2.41,2.4h5.2a2.41,2.41,0,0,0,2.15-1.33l1.23,1a1,1,0,0,0,.63.22H28.9A4.87,4.87,0,0,0,33.56,26l.93-2.76h3.94V48.59H5ZM5,50.68H7.76A5.43,5.43,0,0,0,6.68,53H5Zm7,6.8a3.44,3.44,0,0,1-.77-6.8H12.8a3.44,3.44,0,0,1-.76,6.8Zm13.08,0a3.44,3.44,0,0,1-.77-6.8h1.54a3.44,3.44,0,0,1-.77,6.8Zm26.88,0A3.45,3.45,0,1,1,55.45,54,3.46,3.46,0,0,1,52,57.48ZM57.35,53a5.44,5.44,0,0,0-10.7,0H44.82V31.46h4.64V44.25a1,1,0,0,0,1,1H59V53Z"/></g></svg>