<?xml version="1.0" encoding="UTF-8" standalone="no"?> <svg xmlns="http://www.w3.org/2000/svg" xmlns:xlink="http://www.w3.org/1999/xlink" viewBox="0 0 64 64"><defs><style>.cls-1{fill:url(#linear-gradient);}.cls-2{fill:url(#linear-gradient-2);}</style><linearGradient id="linear-gradient" x1="3" y1="32" x2="61" y2="32" gradientUnits="userSpaceOnUse"><stop offset="0" stop-color="#17a6d7"/><stop offset="1" stop-color="#9d31fe"/></linearGradient><linearGradient id="linear-gradient-2" x1="42.54" y1="48.26" x2="53.96" y2="48.26" xlink:href="#linear-gradient"/></defs><g id="Layer_31" data-name="Layer 31"><path class="cls-1" d="M53.5,36.65V18a1,1,0,0,0-.5-.87l-24.25-14a1,1,0,0,0-1,0L3.5,17.13A1,1,0,0,0,3,18V46a1,1,0,0,0,.5.87l24.25,14a1,1,0,0,0,1,0l9.11-5.26a12.74,12.74,0,1,0,15.64-19ZM28.25,5.15,50.5,18,39.34,24.44,18.68,10.68Zm0,25.7L6,18l10.75-6.21L37.4,25.56ZM5,19.73,27.25,32.58V58.27L5,45.42ZM29.25,58.27V32.58l9-5.23v7.79a1,1,0,0,0,2,0V26.2l11.2-6.47V35.94a12.44,12.44,0,0,0-3.25-.44A12.73,12.73,0,0,0,36.83,53.89Zm19,.73A10.75,10.75,0,1,1,59,48.25,10.76,10.76,0,0,1,48.25,59Z"/><path class="cls-2" d="M53.67,42.84a1,1,0,0,0-1.41,0l-4,4-4-4a1,1,0,1,0-1.41,1.41l4,4-4,4a1,1,0,0,0,0,1.41,1,1,0,0,0,.71.29,1,1,0,0,0,.7-.29l4-4,4,4a1,1,0,0,0,1.41,0,1,1,0,0,0,0-1.41l-4-4,4-4A1,1,0,0,0,53.67,42.84Z"/></g></svg>