<?xml version="1.0" encoding="UTF-8" standalone="no"?> <svg xmlns="http://www.w3.org/2000/svg" xmlns:xlink="http://www.w3.org/1999/xlink" viewBox="0 0 64 64"><defs><style>.cls-1{fill:url(#linear-gradient);}</style><linearGradient id="linear-gradient" x1="3" y1="32" x2="61" y2="32" gradientUnits="userSpaceOnUse"><stop offset="0" stop-color="#17a6d7"/><stop offset="1" stop-color="#9d31fe"/></linearGradient></defs><g id="Layer_7" data-name="Layer 7"><path class="cls-1" d="M57.59,35.77a11.58,11.58,0,0,0-7.25-3.37V17.09a1,1,0,0,0-.5-.87L27.17,3.13a1,1,0,0,0-1,0L3.5,16.22a1,1,0,0,0-.5.87V43.27a1,1,0,0,0,.5.87L26.17,57.22a1,1,0,0,0,1,0l12.25-7.08a11.57,11.57,0,0,0,1,1.38l-7.77,7.77a1,1,0,0,0,1.41,1.42l7.78-7.78A11.66,11.66,0,0,0,57.59,35.77ZM26.67,5.15,47.34,17.09,37,23,17.85,10.25ZM6,17.09l9.92-5.73L35.11,24.15,26.67,29ZM5,18.82,25.67,30.75V54.62L5,42.69Zm22.67,35.8V30.75L36,25.94v7.18a1,1,0,1,0,2,0V24.79l10.34-6V32.39a11.67,11.67,0,0,0-9.82,16Zm28.5-3.78a9.66,9.66,0,0,1-13.66,0,9.49,9.49,0,0,1-1.82-2.52A9.66,9.66,0,1,1,59,44,9.54,9.54,0,0,1,56.17,50.84Z"/></g></svg>