<?xml version="1.0" encoding="UTF-8" standalone="no"?> <svg xmlns="http://www.w3.org/2000/svg" xmlns:xlink="http://www.w3.org/1999/xlink" viewBox="0 0 64 64"><defs><style>.cls-1{fill:url(#linear-gradient);}.cls-2{fill:url(#linear-gradient-2);}.cls-3{fill:url(#linear-gradient-3);}</style><linearGradient id="linear-gradient" x1="20.5" y1="60" x2="43.5" y2="60" gradientUnits="userSpaceOnUse"><stop offset="0" stop-color="#17a6d7"/><stop offset="1" stop-color="#9d31fe"/></linearGradient><linearGradient id="linear-gradient-2" x1="19.04" y1="24" x2="44.96" y2="24" xlink:href="#linear-gradient"/><linearGradient id="linear-gradient-3" x1="11" y1="30" x2="53" y2="30" xlink:href="#linear-gradient"/></defs><g id="Layer_15" data-name="Layer 15"><path class="cls-1" d="M42.5,59h-21a1,1,0,0,0,0,2h21a1,1,0,0,0,0-2Z"/><path class="cls-2" d="M32.5,38.68l12-6.9a1,1,0,0,0,.5-.87V17.1a1,1,0,0,0-.5-.87l-12-6.91a1,1,0,0,0-1,0l-12,6.91a1,1,0,0,0-.5.87V30.91a1,1,0,0,0,.5.87l12,6.9a1,1,0,0,0,1,0Zm-6.19-24,9.25,6.16L32,22.85,22,17.1ZM33,36.09V24.58l3.45-2v3a1,1,0,0,0,2,0V21.43L43,18.83v11.5ZM32,11.34,42,17.1l-4.48,2.58-9.25-6.17ZM21,18.83l10,5.75V36.09L21,30.33Z"/><path class="cls-3" d="M32,57a1,1,0,0,0,.72-.31C33.55,55.83,53,35.32,53,24a21,21,0,0,0-42,0c0,11.32,19.45,31.83,20.28,32.69A1,1,0,0,0,32,57ZM32,5A19,19,0,0,1,51,24c0,9.35-15.44,26.67-19,30.54C28.44,50.67,13,33.36,13,24A19,19,0,0,1,32,5Z"/></g></svg>