<?xml version="1.0" encoding="UTF-8" standalone="no"?> <svg xmlns="http://www.w3.org/2000/svg" xmlns:xlink="http://www.w3.org/1999/xlink" viewBox="0 0 64 64"><defs><style>.cls-1{fill:url(#linear-gradient);}.cls-2{fill:url(#linear-gradient-2);}.cls-3{fill:url(#linear-gradient-3);}</style><linearGradient id="linear-gradient" x1="13.68" y1="42.89" x2="50.32" y2="42.89" gradientUnits="userSpaceOnUse"><stop offset="0" stop-color="#17a6d7"/><stop offset="1" stop-color="#9d31fe"/></linearGradient><linearGradient id="linear-gradient-2" x1="18.86" y1="19.79" x2="45.14" y2="19.79" xlink:href="#linear-gradient"/><linearGradient id="linear-gradient-3" x1="25.68" y1="15.46" x2="38.32" y2="15.46" xlink:href="#linear-gradient"/></defs><g id="Layer_34" data-name="Layer 34"><path class="cls-1" d="M49.82,28.76l-6-3.48a1,1,0,0,0-1,1.74l4.53,2.61L32,38.47,16.67,29.63,21.2,27a1,1,0,0,0-1-1.74l-6,3.48a1,1,0,0,0-.5.88v20a1,1,0,0,0,.5.87l17.32,10a1,1,0,0,0,1,0l17.32-10a1,1,0,0,0,.5-.87v-20A1,1,0,0,0,49.82,28.76ZM15.68,31.37,31,40.2V57.9L15.68,49.05ZM33,57.9V40.2l15.32-8.83V49.05Z"/><path class="cls-2" d="M32,36.57a1,1,0,0,0,.72-.31c.51-.53,12.42-13.09,12.42-20.12a13.14,13.14,0,0,0-26.28,0c0,7,11.91,19.59,12.42,20.12A1,1,0,0,0,32,36.57ZM32,5A11.16,11.16,0,0,1,43.14,16.14c0,4.83-7.46,14-11.14,18-3.68-4-11.14-13.14-11.14-18A11.16,11.16,0,0,1,32,5Z"/><path class="cls-3" d="M38.32,15.46A6.32,6.32,0,1,0,32,21.79,6.33,6.33,0,0,0,38.32,15.46Zm-10.64,0A4.32,4.32,0,1,1,32,19.79,4.33,4.33,0,0,1,27.68,15.46Z"/></g></svg>