<?xml version="1.0" encoding="UTF-8" standalone="no"?> <svg xmlns="http://www.w3.org/2000/svg" xmlns:xlink="http://www.w3.org/1999/xlink" viewBox="0 0 64 64"><defs><style>.cls-1{fill:url(#linear-gradient);}.cls-2{fill:url(#linear-gradient-2);}.cls-3{fill:url(#linear-gradient-3);}</style><linearGradient id="linear-gradient" x1="32.9" y1="39.19" x2="61" y2="39.19" gradientUnits="userSpaceOnUse"><stop offset="0" stop-color="#17a6d7"/><stop offset="1" stop-color="#9d31fe"/></linearGradient><linearGradient id="linear-gradient-2" x1="3" y1="39.19" x2="31.11" y2="39.19" xlink:href="#linear-gradient"/><linearGradient id="linear-gradient-3" x1="17.48" y1="19.67" x2="46.52" y2="19.67" xlink:href="#linear-gradient"/></defs><g id="Layer_20" data-name="Layer 20"><path class="cls-1" d="M61,20.79a3.63,3.63,0,0,0-2.2-3.1A3.64,3.64,0,0,0,53.7,21L53,30.88c-.07,0-.13-.08-.21-.11a3.52,3.52,0,0,0-4.62,1.82l-2.19,5a1.45,1.45,0,0,1-.44.58l-4.66,3.72a3.58,3.58,0,0,0-1,1.35l-2.61,6-1.35-.58a1,1,0,0,0-.76,0,1,1,0,0,0-.55.53L33,53a1,1,0,0,0,.52,1.31l15.33,6.65a1,1,0,0,0,.39.08.94.94,0,0,0,.37-.07,1,1,0,0,0,.55-.53l1.61-3.71a1,1,0,0,0-.52-1.31l-.47-.21.64-1.46A9,9,0,0,1,54,50.27a1,1,0,0,0,.15-.14l4.25-5.05a6.77,6.77,0,0,0,2.48-5.63ZM48.7,58.68,35.21,52.84,36,51l13.49,5.85Zm8.4-15.1a1.85,1.85,0,0,0-.14.14l-4.25,5.05a11,11,0,0,0-3.15,4.14l-.63,1.47-9.85-4.27,2.62-6a1.42,1.42,0,0,1,.43-.57l4.66-3.73a3.55,3.55,0,0,0,1-1.34l2.19-5a1.52,1.52,0,0,1,2.78,1.21l-3.37,7.78a1,1,0,0,0,1.83.79l3.38-7.78a3.51,3.51,0,0,0,.2-2.12L55.7,21a1.6,1.6,0,0,1,.49-1.17,1.68,1.68,0,0,1,1.21-.48,1.81,1.81,0,0,1,.6.14,1.65,1.65,0,0,1,1,1.33l-.1,18.66A4.8,4.8,0,0,1,57.1,43.58Z"/><path class="cls-2" d="M29.42,49.25a1,1,0,0,0-1.32-.52l-1.34.58-2.61-6a3.55,3.55,0,0,0-1-1.34l-4.66-3.72a1.66,1.66,0,0,1-.44-.58l-2.19-5a3.52,3.52,0,0,0-4.62-1.82l-.2.11L10.31,21a3.64,3.64,0,0,0-3.74-3.65,3.58,3.58,0,0,0-1.36.3A3.67,3.67,0,0,0,3,20.87l.1,18.51a6.82,6.82,0,0,0,2.48,5.7l4.25,5.05.14.14a8.91,8.91,0,0,1,2.64,3.44l.63,1.46-.46.21a1,1,0,0,0-.52,1.31l1.61,3.71a1,1,0,0,0,.92.6,1.09,1.09,0,0,0,.39-.08l15.33-6.65A1,1,0,0,0,31,53Zm-15,3.66a10.85,10.85,0,0,0-3.14-4.14L7,43.72a.62.62,0,0,0-.14-.14,4.87,4.87,0,0,1-1.8-4.14L5,20.93a1.66,1.66,0,0,1,1-1.41,1.93,1.93,0,0,1,.61-.14,1.74,1.74,0,0,1,1.21.48,1.69,1.69,0,0,1,.49,1.24l.87,12.17a3.46,3.46,0,0,0,.2,2.12l3.38,7.78a1,1,0,0,0,1.83-.79L11.22,34.6A1.52,1.52,0,0,1,14,33.39l2.19,5a3.63,3.63,0,0,0,1,1.34l4.66,3.73a1.44,1.44,0,0,1,.44.57l2.62,6-9.85,4.27Zm.86,5.77-.81-1.87L28,51l.81,1.88Z"/><path class="cls-3" d="M46.52,27.48V11.87A1,1,0,0,0,46,11L32.5,3.2a1,1,0,0,0-1,0L18,11a1,1,0,0,0-.5.87V27.48a1,1,0,0,0,.5.87l13.52,7.8a1,1,0,0,0,1,0L46,28.35A1,1,0,0,0,46.52,27.48ZM32,5.22l11.52,6.65L38.2,14.94,27.5,7.81Zm0,13.3L20.48,11.87l5.09-2.94,10.7,7.13ZM19.48,13.6,31,20.25v13.3L19.48,26.9ZM33,33.55V20.25l4.16-2.4v3.58a1,1,0,0,0,2,0V16.69l5.36-3.09V26.9Z"/></g></svg>